<?xml version="1.0" standalone="no"?>
<!DOCTYPE svg PUBLIC "-//W3C//DTD SVG 20010904//EN"
 "http://www.w3.org/TR/2001/REC-SVG-20010904/DTD/svg10.dtd">
<svg version="1.0" xmlns="http://www.w3.org/2000/svg"
 width="256.000000pt" height="212.000000pt" viewBox="0 0 256.000000 212.000000"
 preserveAspectRatio="xMidYMid meet">

<g transform="translate(0.000000,212.000000) scale(0.100000,-0.100000)"
fill="#000000" stroke="none">
<path d="M115 2108 c-40 -14 -84 -56 -101 -95 -12 -27 -14 -193 -14 -952 0
-624 3 -929 11 -948 16 -44 67 -90 112 -102 31 -9 294 -11 957 -9 902 3 915 3
950 24 19 11 45 35 57 54 l23 33 -1 566 0 566 -160 -165 -159 -164 0 -298 0
-298 -733 2 -732 3 0 735 0 735 733 3 732 2 0 -50 c0 -27 4 -50 9 -50 15 0
301 300 301 316 0 26 -63 81 -105 93 -54 15 -1837 14 -1880 -1z"/>
</g>
</svg>
